<?xml version="1.0" encoding="UTF-8" standalone="no"?>
<!-- Created with Inkscape (http://www.inkscape.org/) -->

<svg
   width="42.828247mm"
   height="22.000071mm"
   viewBox="0 0 42.828247 22.000071"
   version="1.1"
   id="svg1"
   xmlns="http://www.w3.org/2000/svg"
   xmlns:svg="http://www.w3.org/2000/svg">
  <defs
     id="defs1" />
  <g
     id="layer1"
     transform="translate(-28.368254,31.430438)">
    <path
       id="path26"
       style="font-weight:900;font-size:6.55301px;font-family:Montserrat;-inkscape-font-specification:'Montserrat Heavy';letter-spacing:-0.438206px;opacity:0.97093;fill:#ffffff;fill-rule:evenodd;stroke-width:0.409148;stroke-miterlimit:9.2"
       d="m 57.998001,-31.430438 c -0.301229,0.04802 -0.604235,0.107928 -0.907766,0.178647 -0.505578,0.168569 -0.991026,0.363941 -1.455674,0.584663 l 2.08735,4.593533 c 0.243189,-0.110013 0.494752,-0.202549 0.753906,-0.27438 0.151117,-0.04352 0.30371,-0.07916 0.457303,-0.108556 z m 7.491204,1.257367 -2.466012,4.44224 c 0.375571,0.208525 0.730557,0.452809 1.058207,0.728263 l 3.26522,-3.876381 c -0.576331,-0.495512 -1.198087,-0.928241 -1.857415,-1.294122 z m -15.268756,4.759358 c -0.334972,0.675972 -0.601798,1.387142 -0.79579,2.125814 l 4.879881,1.341135 c 0.113652,-0.41183 0.26878,-0.814188 0.460721,-1.198388 z m -2.204452,0.06582 -19.647743,0.573551 v 1.236852 l 18.740832,0.579534 a 10.916659,10.916659 0 0 1 0.906911,-2.389937 z m 12.033452,0.950504 c -0.606995,0 -1.170453,0.09723 -1.690736,0.292333 -0.513056,0.18788 -0.960713,0.458805 -1.343697,0.812886 -0.375759,0.354081 -0.669147,0.773215 -0.878704,1.257366 -0.209557,0.484151 -0.3137,1.019086 -0.3137,1.604402 0,0.585318 0.104141,1.120253 0.3137,1.604404 0.209557,0.484151 0.502945,0.903287 0.878704,1.257366 0.382984,0.354083 0.830641,0.628894 1.343697,0.823999 0.520283,0.18788 1.083741,0.28122 1.690736,0.28122 0.744293,0 1.401946,-0.12963 1.972809,-0.389776 0.578091,-0.267365 1.055125,-0.64329 1.430886,-1.127441 l -1.614661,-1.441996 c -0.224011,0.281819 -0.473332,0.502617 -0.747924,0.661591 -0.267368,0.151745 -0.571556,0.22737 -0.911185,0.22737 -0.267368,0 -0.508916,-0.0432 -0.7257,-0.129927 -0.216784,-0.08671 -0.405172,-0.213317 -0.564148,-0.379517 -0.151745,-0.1662 -0.270576,-0.364538 -0.357293,-0.595775 -0.08672,-0.238462 -0.129926,-0.502472 -0.129926,-0.791518 0,-0.289045 0.0432,-0.549168 0.129926,-0.780403 0.08671,-0.238462 0.205545,-0.440687 0.357293,-0.606887 0.158974,-0.166197 0.347364,-0.292801 0.564148,-0.379518 0.216784,-0.08672 0.458332,-0.129926 0.7257,-0.129926 0.339629,0 0.643817,0.07951 0.911185,0.238482 0.274592,0.151745 0.523913,0.36866 0.747924,0.650479 l 1.614661,-1.441996 c -0.375761,-0.491378 -0.852795,-0.867301 -1.430886,-1.127442 -0.570863,-0.260142 -1.228516,-0.389776 -1.972809,-0.389776 z m 10.820534,0.853916 -4.904671,1.385582 c 0.117953,0.409539 0.18309,0.829724 0.200017,1.252239 l 5.031176,-0.199163 c -0.02794,-0.800456 -0.13489,-1.616088 -0.326522,-2.438658 z m -24.088274,3.238722 -13.002762,0.264979 v 1.236852 l 13.19594,0.541923 a 10.916659,10.916659 0 0 1 -0.193178,-2.043754 z m 7.904913,2.460882 -4.470448,2.323265 c 0.378085,0.71198 0.817709,1.369856 1.309508,1.969391 l 3.86698,-3.238724 c -0.273261,-0.325592 -0.511419,-0.678595 -0.70604,-1.053932 z m 10.225613,0.918023 c -0.251834,0.347256 -0.536708,0.669289 -0.84964,0.958197 l 3.422498,3.714831 c 0.572552,-0.515459 1.085559,-1.081855 1.534312,-1.690735 z m -17.163781,1.112057 -9.761474,0.508587 v 1.236852 l 11.215438,0.618854 a 10.916659,10.916659 0 0 1 -1.453964,-2.364293 z m 11.222276,1.197531 -1.113765,4.9303138 c 0.750678,0.160495 1.526758,0.247421 2.319845,0.255577 l 0.05641,-5.0345948 c -0.423156,-0.0048 -0.846674,-0.05682 -1.262495,-0.151296 z" />
  </g>
</svg>
